<svg xmlns="http://www.w3.org/2000/svg" width="1000" height="520" viewBox="0 0 1000 520" role="img" aria-label="Container Decoration"><defs><marker id="arrow" markerWidth="12" markerHeight="12" refX="10" refY="6" orient="auto"><path d="M2,2 L10,6 L2,10 Z" fill="#0f172a"/></marker><filter id="shadow"><feDropShadow dx="0" dy="10" stdDeviation="12" flood-color="#0f172a" flood-opacity=".12"/></filter><style>.t{font:700 30px Arial;fill:#0f172a}.l{font:700 19px Arial;fill:#0f172a}.s{font:500 15px Arial;fill:#475569}</style></defs><rect width="1000" height="520" fill="#f8fafc"/><text x="50" y="60" class="t">02 Container: Decoration</text><rect x="90" y="120" width="820" height="350" rx="30" fill="#fff" stroke="#cbd5e1" stroke-width="2" filter="url(#shadow)"/><rect x="290" y="230" width="420" height="150" rx="34" fill="#64748b" opacity=".22"/><rect x="260" y="200" width="420" height="150" rx="34" fill="#7c3aed" stroke="#5b21b6" stroke-width="5"/><text x="470" y="270" text-anchor="middle" font="700 32px Arial" fill="#fff">Container</text><text x="470" y="305" text-anchor="middle" font="500 18px Arial" fill="#ede9fe">BoxDecoration</text><line x1="170" y1="155" x2="280" y2="210" stroke="#0f172a" stroke-width="3" marker-end="url(#arrow)"/><text x="95" y="148" class="l">borderRadius</text><text x="95" y="173" class="s">runde Ecken</text><line x1="790" y1="245" x2="685" y2="245" stroke="#0f172a" stroke-width="3" marker-end="url(#arrow)"/><text x="800" y="240" class="l">color</text><text x="800" y="265" class="s">Füllung</text><line x1="785" y1="360" x2="705" y2="372" stroke="#0f172a" stroke-width="3" marker-end="url(#arrow)"/><text x="800" y="355" class="l">boxShadow</text><text x="800" y="380" class="s">Schatten</text><rect x="150" y="420" width="700" height="38" rx="12" fill="#f8fafc" stroke="#cbd5e1"/><text x="500" y="445" text-anchor="middle" class="s">Sobald du decoration nutzt, gehört color meistens in BoxDecoration.</text></svg>