<svg xmlns="http://www.w3.org/2000/svg" width="1000" height="540" viewBox="0 0 1000 540" role="img" aria-label="Todo Datenfluss"><defs><marker id="arrow" markerWidth="12" markerHeight="12" refX="10" refY="6" orient="auto"><path d="M2,2 L10,6 L2,10 Z" fill="#0f172a"/></marker><filter id="shadow"><feDropShadow dx="0" dy="10" stdDeviation="12" flood-color="#0f172a" flood-opacity=".12"/></filter><style>.t{font:700 30px Arial;fill:#0f172a}.l{font:700 19px Arial;fill:#0f172a}.s{font:500 15px Arial;fill:#475569}</style></defs><rect width="1000" height="540" fill="#f8fafc"/><text x="50" y="60" class="t">10 Mini-App: Datenfluss einer To-do-App</text><rect x="80" y="110" width="840" height="360" rx="30" fill="#fff" stroke="#cbd5e1" stroke-width="2" filter="url(#shadow)"/><rect x="120" y="220" width="140" height="70" rx="16" fill="#f8fafc" stroke="#64748b" stroke-width="3"/><text x="190" y="263" text-anchor="middle" class="l">TextField</text><rect x="330" y="205" width="145" height="100" rx="18" fill="#dbeafe" stroke="#2563eb" stroke-width="3"/><text x="402" y="245" text-anchor="middle" class="l">addTodo</text><text x="402" y="273" text-anchor="middle" class="s">prüfen + add</text><rect x="545" y="220" width="145" height="70" rx="16" fill="#fef3c7" stroke="#d97706" stroke-width="3"/><text x="617" y="263" text-anchor="middle" class="l">todos[]</text><rect x="760" y="205" width="120" height="100" rx="18" fill="#dcfce7" stroke="#16a34a" stroke-width="3"/><text x="820" y="245" text-anchor="middle" class="l">ListView</text><text x="820" y="273" text-anchor="middle" class="s">zeigt Liste</text><line x1="260" y1="255" x2="330" y2="255" stroke="#0f172a" stroke-width="4" marker-end="url(#arrow)"/><line x1="475" y1="255" x2="545" y2="255" stroke="#0f172a" stroke-width="4" marker-end="url(#arrow)"/><line x1="690" y1="255" x2="760" y2="255" stroke="#0f172a" stroke-width="4" marker-end="url(#arrow)"/><path d="M820 305 C820 385 620 390 620 300" fill="none" stroke="#ef4444" stroke-width="4" marker-end="url(#arrow)"/><text x="720" y="390" text-anchor="middle" class="s">delete → removeTodo(index)</text></svg>